<svg xmlns="http://www.w3.org/2000/svg" width="816.366" height="397.518" viewBox="0 0 816.366 397.518">
    <path d="M752.4,295.027H662.479V245.059H752.4V156.217H664.674V95.486l103.273-.331s22.609.932,40.8-36.5c10.823-22.278,6.945-51.2,6.945-51.2H572.555V252.846S332.367,51.321,324.851,45.157a199.373,199.373,0,0,0-22.428-15.964l-.03-.03h0A197.743,197.743,0,0,0,198.759,0C88.992,0,0,88.992,0,198.759S88.992,397.518,198.759,397.518a197.67,197.67,0,0,0,110.849-33.853v-112.2A122.731,122.731,0,1,1,320.642,184h.9V318s.361,2.586,0,2.586c-2.405,0,12.537,36.769,38.724,55.8,23.24,16.9,57.935,16.355,57.935,16.355v-161l129.94,113.284s23.24,22.849,31.688,28.411c21.857,14.371,42.662,12.657,42.662,12.657h193.2s1.924-38.513-12.657-63.287C785.084,292.261,752.4,295.027,752.4,295.027Z"
          fill="#29235c"/>
    <path d="M104.282,42.454a36.115,36.115,0,0,0-5.442,3.518L43.25,91.7s12.026,8.027,23.36,11.966c9.681,3.367,20.023-1.473,20.023-1.473l22.549-18.851v83.43S112.129,177.716,121,182.8c10.372,5.983,24.383,9.831,24.383,9.831V67.318s.722-7.306-5.171-14.792C138.435,50.271,125.568,31.09,104.282,42.454Z"
          transform="translate(86.781 78.016)" fill="#e94e1b"/>
</svg>
