<svg width="192" height="193" viewBox="0 0 192 193" fill="none" xmlns="http://www.w3.org/2000/svg">
<g filter="url(#filter0_dd)">
<path d="M148.439 30.561H43.561C38.0382 30.561 33.561 35.0381 33.561 40.561V146.415C33.561 151.938 38.0382 156.415 43.561 156.415H148.439C153.962 156.415 158.439 151.938 158.439 146.415V40.561C158.439 35.0381 153.962 30.561 148.439 30.561Z" fill="white"/>
<path d="M176 62.7561C176 60.6009 174.253 58.8537 172.098 58.8537C169.942 58.8537 168.195 60.6009 168.195 62.7561V119.341C168.195 121.497 169.942 123.244 172.098 123.244C174.253 123.244 176 121.497 176 119.341V62.7561Z" fill="white"/>
<path d="M67.7071 13C65.5519 13 63.8047 14.7472 63.8047 16.9024C63.8047 19.0577 65.5519 20.8049 67.7071 20.8049L124.292 20.8049C126.448 20.8049 128.195 19.0577 128.195 16.9024C128.195 14.7472 126.448 13 124.292 13L67.7071 13Z" fill="white"/>
<path d="M67.7071 166.171C65.5519 166.171 63.8047 167.918 63.8047 170.074C63.8047 172.229 65.5519 173.976 67.7071 173.976H124.292C126.448 173.976 128.195 172.229 128.195 170.074C128.195 167.918 126.448 166.171 124.292 166.171H67.7071Z" fill="white"/>
<path d="M23.8049 62.7561C23.8049 60.6009 22.0577 58.8537 19.9024 58.8537C17.7472 58.8537 16 60.6009 16 62.7561V119.341C16 121.497 17.7472 123.244 19.9024 123.244C22.0577 123.244 23.8049 121.497 23.8049 119.341V62.7561Z" fill="white"/>
</g>
<defs>
<filter id="filter0_dd" x="0" y="0" width="192" height="192.976" filterUnits="userSpaceOnUse" color-interpolation-filters="sRGB">
<feFlood flood-opacity="0" result="BackgroundImageFix"/>
<feColorMatrix in="SourceAlpha" type="matrix" values="0 0 0 0 0 0 0 0 0 0 0 0 0 0 0 0 0 0 127 0"/>
<feOffset dy="3"/>
<feGaussianBlur stdDeviation="8"/>
<feColorMatrix type="matrix" values="0 0 0 0 0.196487 0 0 0 0 0.196487 0 0 0 0 0.279476 0 0 0 0.06 0"/>
<feBlend mode="multiply" in2="BackgroundImageFix" result="effect1_dropShadow"/>
<feColorMatrix in="SourceAlpha" type="matrix" values="0 0 0 0 0 0 0 0 0 0 0 0 0 0 0 0 0 0 127 0"/>
<feOffset dy="3"/>
<feGaussianBlur stdDeviation="4"/>
<feColorMatrix type="matrix" values="0 0 0 0 0.196487 0 0 0 0 0.196487 0 0 0 0 0.279476 0 0 0 0.08 0"/>
<feBlend mode="multiply" in2="effect1_dropShadow" result="effect2_dropShadow"/>
<feBlend mode="normal" in="SourceGraphic" in2="effect2_dropShadow" result="shape"/>
</filter>
</defs>
</svg>
